<svg xmlns="http://www.w3.org/2000/svg" width="1280" height="400" viewBox="0 0 1280 400" role="img" aria-labelledby="title desc">
<title id="title">SHR DRUMS</title><desc id="desc">Build the kit. Shape the rhythm. Original abstract project artwork.</desc>
<defs><pattern id="grid" width="32" height="32" patternUnits="userSpaceOnUse"><path d="M32 0H0V32" fill="none" stroke="#ffffff" stroke-opacity=".035"/></pattern></defs>
<rect width="1280" height="400" rx="20" fill="#10161e"/><rect width="1280" height="400" rx="20" fill="url(#grid)"/>
<path d="M48 48H92" stroke="#efd16e" stroke-width="4"/><text x="108" y="54" font-family="DejaVu Sans, sans-serif" font-size="13" letter-spacing="3" fill="#a6b2bf">SHR / SOUND TOOLS</text>
<text x="48" y="155" font-family="DejaVu Sans, sans-serif" font-size="64" font-weight="700" letter-spacing="-2" fill="#f3f0eb">SHR DRUMS</text>
<text x="51" y="207" font-family="DejaVu Sans, sans-serif" font-size="23" fill="#b9c3cd">Build the kit. Shape the rhythm.</text>
<text x="51" y="319" font-family="DejaVu Sans Mono, monospace" font-size="13" letter-spacing="1.3" fill="#efd16e">MODELED VOICES   /   SAMPLE PACKAGES</text>
<path d="M748 76V326" stroke="#303944"/><rect x="801" y="104" width="33" height="33" rx="6" fill="#efd16e" opacity="1"/><rect x="846" y="104" width="33" height="33" rx="6" fill="#212932" opacity="0.9"/><rect x="891" y="104" width="33" height="33" rx="6" fill="#212932" opacity="0.9"/><rect x="936" y="104" width="33" height="33" rx="6" fill="#212932" opacity="0.9"/><rect x="981" y="104" width="33" height="33" rx="6" fill="#efd16e" opacity="1"/><rect x="1026" y="104" width="33" height="33" rx="6" fill="#212932" opacity="0.9"/><rect x="1071" y="104" width="33" height="33" rx="6" fill="#212932" opacity="0.9"/><rect x="1116" y="104" width="33" height="33" rx="6" fill="#212932" opacity="0.9"/><rect x="801" y="152" width="33" height="33" rx="6" fill="#212932" opacity="0.9"/><rect x="846" y="152" width="33" height="33" rx="6" fill="#212932" opacity="0.9"/><rect x="891" y="152" width="33" height="33" rx="6" fill="#efd16e" opacity="1"/><rect x="936" y="152" width="33" height="33" rx="6" fill="#212932" opacity="0.9"/><rect x="981" y="152" width="33" height="33" rx="6" fill="#212932" opacity="0.9"/><rect x="1026" y="152" width="33" height="33" rx="6" fill="#212932" opacity="0.9"/><rect x="1071" y="152" width="33" height="33" rx="6" fill="#efd16e" opacity="1"/><rect x="1116" y="152" width="33" height="33" rx="6" fill="#212932" opacity="0.9"/><rect x="801" y="200" width="33" height="33" rx="6" fill="#efd16e" opacity="1"/><rect x="846" y="200" width="33" height="33" rx="6" fill="#212932" opacity="0.9"/><rect x="891" y="200" width="33" height="33" rx="6" fill="#efd16e" opacity="1"/><rect x="936" y="200" width="33" height="33" rx="6" fill="#212932" opacity="0.9"/><rect x="981" y="200" width="33" height="33" rx="6" fill="#efd16e" opacity="1"/><rect x="1026" y="200" width="33" height="33" rx="6" fill="#212932" opacity="0.9"/><rect x="1071" y="200" width="33" height="33" rx="6" fill="#efd16e" opacity="1"/><rect x="1116" y="200" width="33" height="33" rx="6" fill="#212932" opacity="0.9"/><rect x="801" y="248" width="33" height="33" rx="6" fill="#212932" opacity="0.9"/><rect x="846" y="248" width="33" height="33" rx="6" fill="#efd16e" opacity="1"/><rect x="891" y="248" width="33" height="33" rx="6" fill="#212932" opacity="0.9"/><rect x="936" y="248" width="33" height="33" rx="6" fill="#212932" opacity="0.9"/><rect x="981" y="248" width="33" height="33" rx="6" fill="#efd16e" opacity="1"/><rect x="1026" y="248" width="33" height="33" rx="6" fill="#212932" opacity="0.9"/><rect x="1071" y="248" width="33" height="33" rx="6" fill="#212932" opacity="0.9"/><rect x="1116" y="248" width="33" height="33" rx="6" fill="#efd16e" opacity="1"/>
<text x="1229" y="366" text-anchor="end" font-family="DejaVu Sans Mono, monospace" font-size="11" letter-spacing="2" fill="#73808e">DRUMS</text>
</svg>
